PathFileType	4	(X/Y/Z)	T1_P1_Vision_Movement_3_0-659.trc
DataRate	CameraRate	NumFrames	NumMarkers	Units	OrigDataRate	OrigDataStartFrame	OrigNumFrames
60	60	7	27	m	60	329	659
Frame#	Time	RHip			RKnee			RAnkle			RBigToe			RSmallToe			RHeel			LHip			LKnee			LAnkle			LBigToe			LSmallToe			LHeel			Neck			Head			Nose			RShoulder			RElbow			RWrist			RThumb			RIndex			RPinky			LShoulder			LElbow			LWrist			LThumb			LIndex			LPinky		
		X1	Y1	Z1	X2	Y2	Z2	X3	Y3	Z3	X4	Y4	Z4	X5	Y5	Z5	X6	Y6	Z6	X7	Y7	Z7	X8	Y8	Z8	X9	Y9	Z9	X10	Y10	Z10	X11	Y11	Z11	X12	Y12	Z12	X13	Y13	Z13	X14	Y14	Z14	X15	Y15	Z15	X16	Y16	Z16	X17	Y17	Z17	X18	Y18	Z18	X19	Y19	Z19	X20	Y20	Z20	X21	Y21	Z21	X22	Y22	Z22	X23	Y23	Z23	X24	Y24	Z24	X25	Y25	Z25	X26	Y26	Z26	X27	Y27	Z27
330	5.5	-111.60827233120007	3912.239083715066	-633.8628230978121	245.30285429918598	4058.6733046889126	-647.1531489807971	605.0655782010293	4268.471710416889	-687.6389573496933	684.9221070995252	4178.8874622185995	-645.2219330078109	674.7831469768516	4141.131487295967	-686.4905897888492	642.2486040056041	4316.3952392835245	-697.9877010969558	-130.46693508746472	4056.093699323301	-492.1731572989782	214.516881755206	4165.209739464646	-492.99868760161854	552.2535954675668	4332.572761266568	-515.5489646578203	641.9226627936004	4239.179271156229	-416.4310926867332	610.6292902193904	4258.074430005841	-376.0113450873814	609.0657075684486	4376.601572275018	-540.2068600646081	-720.4091231201315	3841.3829246556616	-590.0732164602496	-946.4178264605767	3668.740620663261	-487.1427039193354	-804.0889819253127	3662.5229509871942	-454.57376864781054	-590.7184977441326	3756.584465521396	-711.4461658241615	-353.32963815470805	3669.2618304057414	-707.7879961508984	-508.6741798708308	3481.2880431788826	-613.9775786656238	-626.4921825350165	3530.590640175452	-599.5496765224771	-618.625094026311	3436.2527970196047	-559.7854736627473	-545.8435096252833	3402.8045067934704	-552.3800433135783	-651.8248655114107	3966.282671136221	-466.021405136873	-408.3234621446068	4088.908820076879	-413.26855326587076	-152.08921442361296	4113.066918125293	-369.2393001970566	-24.577034760734257	4109.7719362585185	-370.54584457790065	6.347328642299993	4139.482714125608	-358.6869172745614	-15.495799085900275	4155.322338760575	-334.87585260107903
331	5.516666666666667	-112.78252719076562	3908.336144257186	-632.6183834453392	246.23991873589705	4058.4198280516002	-646.9811504386532	603.3565213585667	4266.864159144357	-686.0135690330775	682.3783672770247	4172.525808016537	-643.884756879718	674.25507094748	4144.812015034404	-689.5964031164333	641.7561505529216	4316.168971374933	-698.0979835645678	-130.39568415218332	4054.5126552607626	-491.12468738891306	214.37622032555817	4162.801169904843	-492.5993921443191	550.5577415462132	4331.599992827824	-515.8028910146014	641.7174550791028	4238.308882278247	-415.84683425406064	608.6459446793997	4254.407512371028	-374.939937172294	607.7227598489053	4375.762038289371	-539.3398480294974	-719.8032883371316	3841.565206651753	-590.7558604529947	-947.342967829086	3672.7256247450196	-487.01135809840594	-803.2452322082728	3663.2212052125838	-454.73386335122234	-590.6498169226033	3756.3462882083686	-711.405849680818	-351.68433353333876	3665.2806724214925	-704.8084121181233	-504.43613527112643	3484.3199883376014	-617.0545520533248	-617.4317440425532	3519.1673419922363	-596.0904626299462	-606.0030305601359	3424.2142820634576	-555.6032075993865	-543.8319970881655	3402.8082463484243	-552.4990490280666	-651.9512959255021	3966.572715585302	-465.9748814276658	-408.1018762425318	4083.7827838364847	-409.7703102735013	-152.00706932674137	4110.265412148962	-368.8892652457022	-24.50039124306908	4109.301100967384	-370.5470103912153	4.951773591345672	4138.593986106421	-359.09678008424737	-15.601803994961882	4155.309957575461	-334.89332171442663
332	5.533333333333333	-113.48786573436888	3907.220341025288	-632.2660657955284	246.5996389457095	4058.316531763443	-646.9537948867167	601.6636848356987	4265.109690752605	-684.9147096015677	680.4108841065611	4168.965491592542	-643.2150817243753	674.3432853884497	4149.259023409821	-693.3094714445468	640.692936745643	4315.849692184007	-698.3495824170434	-130.56178539606984	4056.0503102906077	-492.39776253353705	214.42685135891895	4165.507686031451	-493.0556874447471	550.3391164368685	4331.181129666825	-515.850435808432	640.3429296822543	4236.070288930402	-414.40546179861394	606.4916836323437	4251.403205277175	-373.9244211038574	606.8361528036743	4375.221087632615	-538.9749133827903	-718.4817207176847	3842.396279722227	-591.0672143923216	-947.959075864948	3675.349106160194	-485.5243101767904	-801.6670024443184	3664.3993900393884	-455.1249770914574	-591.5741902191725	3755.7004354016835	-711.2041344936033	-350.8103135348692	3663.08975384043	-702.7035785100078	-499.90672238473553	3491.1508213489565	-621.7625073978098	-609.5805651847845	3507.0722117066407	-592.1624268819904	-594.7051357903274	3412.344390686661	-551.0457414163692	-542.0650395497229	3405.6832250705115	-554.4939725751555	-650.3465007909624	3967.0900103276144	-466.09674196645676	-408.17672358937716	4083.848870921748	-409.7766482384708	-152.07388725738255	4109.923436021878	-368.81178347392887	-24.04947361964011	4109.47989596352	-370.4792010554703	5.463784465970386	4138.921325167615	-359.2133471285872	-15.686304708305812	4155.284261261695	-334.8545528408524
333	5.55	-113.67980810051692	3907.508122555831	-632.385901525637	246.1527873828644	4058.4096829738073	-647.0626124485044	601.0188575323459	4263.935446221545	-684.3028079010902	680.2695389277035	4168.496895278153	-643.0368312701687	675.1907575677378	4149.073648604258	-693.0616296571923	640.0570285811398	4315.912975636587	-698.6137670237551	-131.14869145690417	4059.1974646007675	-494.7396576572833	214.66568124697545	4173.705834792791	-494.0807253315524	551.0729005367276	4331.121941542495	-515.7302341811389	639.0446987022756	4232.909779920727	-412.33623233301347	606.2749998194988	4256.583309513738	-374.9078520655914	606.6310857621189	4375.159436764558	-538.9105495950209	-716.7786344525222	3843.579083614117	-591.3602016783964	-948.1096814038251	3676.014050190236	-484.5420184477079	-800.4448291620972	3665.3511748077167	-455.51927163450694	-592.6943943582962	3755.0650606931495	-710.9783073832679	-350.2433196797021	3664.642656083409	-703.4108851604328	-496.0687798332355	3497.041418596995	-625.4352328481494	-603.560409954721	3493.0374608894645	-587.530631463442	-586.8965302349743	3403.6365918319852	-547.382265392294	-539.7995717226814	3407.8894326406835	-555.7094861585791	-647.34527950172	3965.236822175331	-465.81914794660895	-408.54535442971377	4088.9022984604726	-413.1847281316224	-152.26900636211363	4111.233818581549	-368.3589127150261	-23.422791998619935	4109.895072565339	-370.31017931130646	6.665014008758515	4139.634700420799	-359.1189611153019	-15.712839700434419	4155.352840792371	-334.9608689001182
334	5.566666666666666	-113.85444751326466	3907.7946868309273	-632.5304685085314	245.07871753722753	4058.579978242691	-647.2276964414564	601.5282188544961	4263.95873899993	-684.3095429733927	681.6952017569445	4169.577741496147	-642.9722078224663	675.9534447578212	4144.587580905443	-689.1173757878121	640.3439803271262	4316.321261949298	-698.6915441024756	-132.32719391833882	4060.298765236658	-495.1410557599392	215.02276612582247	4184.530825862033	-495.3953790415169	552.0458482991202	4331.1864688566575	-515.5589434579138	638.8314409653707	4230.907900938494	-411.00474930128416	608.1328809789738	4269.412533936133	-378.2843832408288	606.8350798383849	4375.382223413732	-538.9518071461129	-715.4818726296943	3844.508644923466	-591.6326662778661	-948.0286628397672	3675.7729802615663	-485.3851195289303	-800.0057260049855	3665.7167674314296	-455.73175392590605	-593.1384000107712	3754.907621719143	-710.9248056213603	-349.66005049788726	3669.895999444596	-707.2980020880698	-493.20661295257787	3499.708259153291	-626.7212242635575	-598.2205007539907	3479.09382472796	-582.2608836088218	-581.7249626102994	3399.0118335338025	-544.9049992406264	-537.3149524694695	3407.6565417895745	-554.9882651925195	-643.8859435919572	3958.869005688419	-464.5843861142299	-408.83145608779614	4094.351845787252	-416.87150568905105	-152.5955877402455	4113.5610521106155	-367.0582090257911	-23.28705909901027	4110.139810074352	-370.10791588318403	7.401626799345971	4140.070531434334	-358.96954502616006	-15.652664575127455	4155.649242377335	-335.56028655409165
335	5.583333333333333	-114.41713475194834	3907.4800233719816	-632.5054340862365	243.97014114192172	4058.637283750669	-647.3442881852977	602.4748104370647	4265.086232445908	-684.9421905716924	683.2095013234446	4170.610100378218	-642.915871780581	675.8044017139258	4141.653786383182	-686.5488393860466	640.7027812420105	4316.430392517534	-698.5650522712826	-133.65948053177124	4057.424735669217	-491.8271748372149	215.35224898478748	4193.031753964478	-496.5771417715951	552.7569045556393	4331.392961816418	-515.5109927956566	639.0636897863778	4230.445241863645	-410.70154636822525	611.0417070375316	4282.797392574228	-382.54714860201756	607.3045202531129	4375.701555559875	-539.2264504260364	-714.9446085672869	3844.9128663417077	-591.7981604260693	-947.9210812402632	3675.460939536844	-487.45951302875153	-800.0742083930368	3665.5149337512225	-455.65543960214075	-592.3018096993329	3755.545027533835	-711.19759318488	-349.47716270214215	3676.543493030311	-712.6699873451572	-490.5445737934044	3500.6636324466435	-626.7879075838409	-592.8177452392013	3472.2869778388495	-579.3761066495554	-577.2582302506536	3399.091378628603	-544.5677017808106	-535.2520079019238	3406.668005123242	-553.8653727429539	-641.133654108883	3950.563617731865	-462.8844455874952	-408.4935690993513	4097.427920884921	-418.8677553549018	-152.91127310133606	4114.728704318843	-365.0411737072523	-23.977964426448157	4110.235227630312	-370.0176071000963	8.246048261952513	4140.746747418682	-359.1022389932738	-15.502502542153692	4156.101772560922	-336.6946242107543
336	5.6	-115.26830399730014	3906.6525467538595	-632.2769520360072	243.47143114647326	4058.4773921981123	-647.330327419059	603.1719176612515	4266.3133663142	-685.8458507303704	683.8324564228041	4170.827925992572	-642.8652694139945	675.1824024739723	4144.339641886163	-688.8462058837089	640.3752290618219	4315.9317483983505	-698.3816451363695	-134.40033541199418	4053.1300785234716	-486.88777297023046	215.54159030338906	4196.827513481296	-497.2073334990676	553.3782705415581	4331.978330216564	-515.7149862273212	638.3499444667605	4228.235504724194	-409.28968015618875	613.920366505364	4290.321220436515	-385.1401905305141	608.1877784605955	4376.175944630576	-540.092618814982	-714.897370763419	3845.0077204597474	-591.8779815601056	-947.8733534687423	3675.3367627236216	-489.2527545910975	-800.7822100568169	3664.7409260291233	-455.28803619850396	-590.6492063275059	3756.673375632167	-711.683764260131	-350.1468630847827	3681.182445915417	-716.8145248605085	-487.9685778425705	3502.6741246157662	-627.8736744668529	-589.1308657503408	3477.881977590234	-582.8362129713477	-572.7951290012466	3402.9576271110664	-546.9400693985075	-533.8498522804122	3407.8798508228606	-554.6287098180246	-639.9627101563159	3946.302900246921	-461.99954679655013	-407.24684024427734	4099.003151959077	-419.68072907751224	-152.9641339575276	4111.25830147078	-362.9316518454508	-25.30304755363505	4110.306498965717	-370.1168409221772	9.75068610976212	4141.985290792193	-359.60514287849946	-15.337382657589664	4156.391397559949	-337.77305999840365
